<svg width="32" height="32" viewBox="0 0 32 32" fill="none" xmlns="http://www.w3.org/2000/svg">
<g clip-path="url(#clip0)">
<path d="M31.9687 9.40809C31.8937 7.7078 31.6187 6.53888 31.2249 5.52598C30.8185 4.45082 30.1934 3.48823 29.3744 2.68802C28.5742 1.87537 27.6053 1.2439 26.5426 0.843915C25.5238 0.450039 24.361 0.175083 22.6607 0.100117C20.9477 0.0188025 20.4039 0 16.0593 0C11.7147 0 11.1709 0.0188025 9.46429 0.0937683C7.76401 0.168734 6.59508 0.443934 5.58243 0.837566C4.50703 1.2439 3.54444 1.86902 2.74424 2.68802C1.93158 3.48823 1.30035 4.45717 0.900127 5.51988C0.506252 6.53888 0.231296 7.70146 0.15633 9.40174C0.0750158 11.1147 0.0562134 11.6585 0.0562134 16.0031C0.0562134 20.3477 0.0750158 20.8915 0.149982 22.5982C0.224947 24.2984 0.500147 25.4674 0.894023 26.4803C1.30035 27.5554 1.93158 28.518 2.74424 29.3182C3.54444 30.1309 4.51338 30.7624 5.57609 31.1623C6.59508 31.5562 7.75766 31.8312 9.45819 31.9061C11.1646 31.9813 11.7086 31.9999 16.0532 31.9999C20.3978 31.9999 20.9416 31.9813 22.6483 31.9061C24.3485 31.8312 25.5175 31.5562 26.5301 31.1623C28.6807 30.3309 30.381 28.6306 31.2124 26.4803C31.606 25.4613 31.8812 24.2984 31.9562 22.5982C32.0312 20.8915 32.05 20.3477 32.05 16.0031C32.05 11.6585 32.0436 11.1147 31.9687 9.40809ZM29.087 22.4731C29.0181 24.0359 28.7556 24.8799 28.5368 25.4425C27.9991 26.8365 26.8927 27.943 25.4987 28.4807C24.9361 28.6995 24.086 28.962 22.5293 29.0306C20.8415 29.1058 20.3353 29.1243 16.0657 29.1243C11.796 29.1243 11.2835 29.1058 9.60177 29.0306C8.03897 28.962 7.19505 28.6995 6.63244 28.4807C5.9387 28.2243 5.30723 27.8179 4.79468 27.2866C4.26333 26.7677 3.857 26.1426 3.6006 25.4488C3.38181 24.8862 3.11931 24.0359 3.05069 22.4795C2.97548 20.7917 2.95692 20.2852 2.95692 16.0156C2.95692 11.7459 2.97548 11.2334 3.05069 9.55192C3.11931 7.98911 3.38181 7.14519 3.6006 6.58258C3.857 5.8886 4.26333 5.25737 4.80103 4.74458C5.31969 4.21323 5.94481 3.8069 6.63879 3.55074C7.2014 3.33195 8.05166 3.06945 9.60812 3.00059C11.2959 2.92562 11.8024 2.90682 16.0718 2.90682C20.3478 2.90682 20.854 2.92562 22.5357 3.00059C24.0985 3.06945 24.9424 3.33195 25.505 3.55074C26.1987 3.8069 26.8302 4.21323 27.3428 4.74458C27.8741 5.26348 28.2805 5.8886 28.5368 6.58258C28.7556 7.14519 29.0181 7.99521 29.087 9.55192C29.162 11.2397 29.1808 11.7459 29.1808 16.0156C29.1808 20.2852 29.162 20.7853 29.087 22.4731Z" fill="black"/>
<path d="M16.0593 7.78296C11.5211 7.78296 7.83899 11.4648 7.83899 16.0033C7.83899 20.5418 11.5211 24.2237 16.0593 24.2237C20.5978 24.2237 24.2797 20.5418 24.2797 16.0033C24.2797 11.4648 20.5978 7.78296 16.0593 7.78296ZM16.0593 21.3357C13.1152 21.3357 10.727 18.9477 10.727 16.0033C10.727 13.0589 13.1152 10.671 16.0593 10.671C19.0038 10.671 21.3917 13.0589 21.3917 16.0033C21.3917 18.9477 19.0038 21.3357 16.0593 21.3357Z" fill="black"/>
<path d="M26.524 7.45765C26.524 8.51743 25.6647 9.37673 24.6047 9.37673C23.5449 9.37673 22.6856 8.51743 22.6856 7.45765C22.6856 6.39763 23.5449 5.53857 24.6047 5.53857C25.6647 5.53857 26.524 6.39763 26.524 7.45765Z" fill="black"/>
</g>
<defs>
<clipPath id="clip0">
<rect width="32" height="32" fill="white"/>
</clipPath>
</defs>
</svg>
