<svg width="32" height="32" viewBox="0 0 32 32" fill="none" xmlns="http://www.w3.org/2000/svg">
<path d="M16 0C7.16343 0 0 7.16343 0 16C0 24.8366 7.16343 32 16 32C24.8366 32 32 24.8366 32 16C32 7.16343 24.8366 0 16 0ZM22.9634 23.2204C22.76 23.5685 22.3938 23.7626 22.0178 23.7626C21.8302 23.7626 21.6403 23.7144 21.4667 23.613C18.5915 21.9327 15.2699 21.6626 12.9892 21.732C10.4628 21.8088 8.61007 22.3076 8.59166 22.3126C8.00928 22.4717 7.40744 22.129 7.24769 21.5467C7.08801 20.9645 7.42952 20.363 8.0116 20.2027C8.09511 20.1797 10.0888 19.6382 12.8612 19.5467C14.4943 19.4929 16.0664 19.6067 17.5333 19.885C19.3912 20.2374 21.0861 20.8561 22.5708 21.7238C23.0926 22.0286 23.2683 22.6988 22.9634 23.2204ZM24.9975 18.9957C24.7566 19.4081 24.3229 19.6379 23.8774 19.638C23.6553 19.638 23.4303 19.5809 23.2246 19.4608C19.819 17.4704 15.8843 17.1506 13.1828 17.2327C10.1902 17.3238 7.99559 17.9145 7.97381 17.9205C7.28413 18.1087 6.5711 17.7031 6.38186 17.0133C6.1927 16.3236 6.59729 15.6112 7.28675 15.4212C7.38567 15.394 9.74722 14.7525 13.0312 14.6442C14.9657 14.5805 16.8279 14.7152 18.5654 15.0448C20.7663 15.4624 22.7738 16.1952 24.5325 17.2229C25.1505 17.584 25.3587 18.3778 24.9975 18.9957ZM26.248 15.1545C25.9755 15.1545 25.6995 15.0844 25.4473 14.937C17.3505 10.2051 6.84736 13.0182 6.74223 13.0472C5.89571 13.2805 5.02061 12.7833 4.78744 11.9369C4.55421 11.0904 5.05136 10.2153 5.8978 9.9821C6.0191 9.94865 8.91581 9.16184 12.944 9.02902C15.317 8.9509 17.601 9.11612 19.7323 9.52041C22.4318 10.0325 24.8944 10.9314 27.0515 12.192C27.8095 12.635 28.0649 13.6086 27.6219 14.3666C27.3264 14.8724 26.7944 15.1545 26.248 15.1545Z" fill="black"/>
</svg>
