<svg width="20" height="20" viewBox="0 0 20 20" fill="none" xmlns="http://www.w3.org/2000/svg">
<path d="M14.3291 1.72133C12.6607 1.71242 11.0747 2.44514 9.99998 3.72131C8.93203 2.43642 7.34156 1.70161 5.67085 1.72133C2.53892 1.72133 0 4.26025 0 7.39219C0 12.7593 9.36708 17.9998 9.74684 18.2023C9.90006 18.3047 10.0999 18.3047 10.2532 18.2023C10.6329 17.9998 20 12.8352 20 7.39219C20 4.26025 17.461 1.72133 14.3291 1.72133ZM9.99998 17.1897C8.53162 16.3289 1.01266 11.7467 1.01266 7.39219C1.01266 4.81955 3.09821 2.73395 5.6709 2.73395C7.24634 2.71325 8.7207 3.5079 9.56963 4.8352C9.74199 5.07288 10.0745 5.12584 10.3121 4.95343C10.3575 4.92048 10.3975 4.8806 10.4304 4.8352C11.8383 2.682 14.7252 2.07783 16.8784 3.48576C18.1965 4.34767 18.9899 5.81723 18.9873 7.39214C18.9873 11.7972 11.4683 16.3542 9.99998 17.1897Z" fill="#9B125A"/>
</svg>
